<mxfile host="app.diagrams.net" agent="Mozilla/5.0 (X11; Linux x86_64) AppleWebKit/537.36 (KHTML, like Gecko) Chrome/135.0.0.0 Safari/537.36" version="26.2.14" pages="3">
  <diagram name="第 1 页" id="RlByKAGP8MKcs0QE_Kdp">
    <mxGraphModel dx="1151" dy="712" grid="0" gridSize="10" guides="1" tooltips="1" connect="1" arrows="1" fold="1" page="1" pageScale="1" pageWidth="827" pageHeight="1169" math="0" shadow="0">
      <root>
        <mxCell id="0" />
        <mxCell id="1" parent="0" />
        <mxCell id="R8jiZ7DCDE4Kby83pJ52-1" value="" style="verticalLabelPosition=bottom;verticalAlign=top;html=1;shape=mxgraph.flowchart.on-page_reference;fillColor=#FF0000;" vertex="1" parent="1">
          <mxGeometry x="354" y="280" width="60" height="60" as="geometry" />
        </mxCell>
        <mxCell id="R8jiZ7DCDE4Kby83pJ52-20" style="rounded=0;orthogonalLoop=1;jettySize=auto;html=1;exitX=0.5;exitY=1;exitDx=0;exitDy=0;exitPerimeter=0;strokeWidth=4;endArrow=none;startFill=0;" edge="1" parent="1" source="R8jiZ7DCDE4Kby83pJ52-2" target="R8jiZ7DCDE4Kby83pJ52-17">
          <mxGeometry relative="1" as="geometry" />
        </mxCell>
        <mxCell id="R8jiZ7DCDE4Kby83pJ52-2" value="" style="verticalLabelPosition=bottom;verticalAlign=top;html=1;shape=mxgraph.flowchart.on-page_reference;" vertex="1" parent="1">
          <mxGeometry x="470" y="330" width="60" height="60" as="geometry" />
        </mxCell>
        <mxCell id="R8jiZ7DCDE4Kby83pJ52-3" value="" style="verticalLabelPosition=bottom;verticalAlign=top;html=1;shape=mxgraph.flowchart.on-page_reference;" vertex="1" parent="1">
          <mxGeometry x="250" y="370" width="60" height="60" as="geometry" />
        </mxCell>
        <mxCell id="R8jiZ7DCDE4Kby83pJ52-4" value="" style="verticalLabelPosition=bottom;verticalAlign=top;html=1;shape=mxgraph.flowchart.on-page_reference;" vertex="1" parent="1">
          <mxGeometry x="400" y="150" width="60" height="60" as="geometry" />
        </mxCell>
        <mxCell id="R8jiZ7DCDE4Kby83pJ52-15" style="rounded=0;orthogonalLoop=1;jettySize=auto;html=1;exitX=0.145;exitY=0.855;exitDx=0;exitDy=0;exitPerimeter=0;endArrow=none;startFill=0;strokeWidth=4;" edge="1" parent="1" source="R8jiZ7DCDE4Kby83pJ52-5" target="R8jiZ7DCDE4Kby83pJ52-7">
          <mxGeometry relative="1" as="geometry" />
        </mxCell>
        <mxCell id="R8jiZ7DCDE4Kby83pJ52-5" value="" style="verticalLabelPosition=bottom;verticalAlign=top;html=1;shape=mxgraph.flowchart.on-page_reference;" vertex="1" parent="1">
          <mxGeometry x="210" y="170" width="60" height="60" as="geometry" />
        </mxCell>
        <mxCell id="R8jiZ7DCDE4Kby83pJ52-7" value="" style="verticalLabelPosition=bottom;verticalAlign=top;html=1;shape=mxgraph.flowchart.on-page_reference;fillColor=#FF0000;" vertex="1" parent="1">
          <mxGeometry x="160" y="280" width="60" height="60" as="geometry" />
        </mxCell>
        <mxCell id="R8jiZ7DCDE4Kby83pJ52-8" value="" style="verticalLabelPosition=bottom;verticalAlign=top;html=1;shape=mxgraph.flowchart.on-page_reference;" vertex="1" parent="1">
          <mxGeometry x="510" y="200" width="60" height="60" as="geometry" />
        </mxCell>
        <mxCell id="R8jiZ7DCDE4Kby83pJ52-9" style="edgeStyle=orthogonalEdgeStyle;rounded=1;orthogonalLoop=1;jettySize=auto;html=1;exitX=1;exitY=0.5;exitDx=0;exitDy=0;exitPerimeter=0;entryX=0;entryY=0.5;entryDx=0;entryDy=0;entryPerimeter=0;endArrow=none;startFill=0;curved=0;strokeWidth=4;" edge="1" parent="1" source="R8jiZ7DCDE4Kby83pJ52-7" target="R8jiZ7DCDE4Kby83pJ52-1">
          <mxGeometry relative="1" as="geometry" />
        </mxCell>
        <mxCell id="R8jiZ7DCDE4Kby83pJ52-10" style="rounded=0;orthogonalLoop=1;jettySize=auto;html=1;exitX=0.855;exitY=0.145;exitDx=0;exitDy=0;exitPerimeter=0;entryX=0.033;entryY=0.767;entryDx=0;entryDy=0;entryPerimeter=0;strokeWidth=4;endArrow=none;startFill=0;" edge="1" parent="1" source="R8jiZ7DCDE4Kby83pJ52-1" target="R8jiZ7DCDE4Kby83pJ52-8">
          <mxGeometry relative="1" as="geometry" />
        </mxCell>
        <mxCell id="R8jiZ7DCDE4Kby83pJ52-11" style="rounded=0;orthogonalLoop=1;jettySize=auto;html=1;exitX=0.145;exitY=0.855;exitDx=0;exitDy=0;exitPerimeter=0;entryX=0.5;entryY=0;entryDx=0;entryDy=0;entryPerimeter=0;strokeWidth=4;endArrow=none;startFill=0;" edge="1" parent="1" source="R8jiZ7DCDE4Kby83pJ52-4" target="R8jiZ7DCDE4Kby83pJ52-1">
          <mxGeometry relative="1" as="geometry" />
        </mxCell>
        <mxCell id="R8jiZ7DCDE4Kby83pJ52-12" style="rounded=0;orthogonalLoop=1;jettySize=auto;html=1;exitX=0.855;exitY=0.145;exitDx=0;exitDy=0;exitPerimeter=0;entryX=0.145;entryY=0.855;entryDx=0;entryDy=0;entryPerimeter=0;strokeWidth=4;endArrow=none;startFill=0;" edge="1" parent="1" source="R8jiZ7DCDE4Kby83pJ52-3" target="R8jiZ7DCDE4Kby83pJ52-1">
          <mxGeometry relative="1" as="geometry" />
        </mxCell>
        <mxCell id="R8jiZ7DCDE4Kby83pJ52-13" style="rounded=0;orthogonalLoop=1;jettySize=auto;html=1;exitX=0.855;exitY=0.855;exitDx=0;exitDy=0;exitPerimeter=0;entryX=0.145;entryY=0.145;entryDx=0;entryDy=0;entryPerimeter=0;endArrow=none;startFill=0;strokeWidth=4;" edge="1" parent="1" source="R8jiZ7DCDE4Kby83pJ52-5" target="R8jiZ7DCDE4Kby83pJ52-1">
          <mxGeometry relative="1" as="geometry" />
        </mxCell>
        <mxCell id="R8jiZ7DCDE4Kby83pJ52-14" style="rounded=0;orthogonalLoop=1;jettySize=auto;html=1;exitX=0.855;exitY=0.855;exitDx=0;exitDy=0;exitPerimeter=0;entryX=0.042;entryY=0.339;entryDx=0;entryDy=0;entryPerimeter=0;endArrow=none;startFill=0;strokeWidth=4;" edge="1" parent="1" source="R8jiZ7DCDE4Kby83pJ52-1" target="R8jiZ7DCDE4Kby83pJ52-2">
          <mxGeometry relative="1" as="geometry" />
        </mxCell>
        <mxCell id="R8jiZ7DCDE4Kby83pJ52-16" value="" style="verticalLabelPosition=bottom;verticalAlign=top;html=1;shape=mxgraph.flowchart.on-page_reference;" vertex="1" parent="1">
          <mxGeometry x="370" y="440" width="60" height="60" as="geometry" />
        </mxCell>
        <mxCell id="R8jiZ7DCDE4Kby83pJ52-17" value="" style="verticalLabelPosition=bottom;verticalAlign=top;html=1;shape=mxgraph.flowchart.on-page_reference;fillColor=#FF0000;" vertex="1" parent="1">
          <mxGeometry x="470" y="450" width="60" height="60" as="geometry" />
        </mxCell>
        <mxCell id="R8jiZ7DCDE4Kby83pJ52-19" style="rounded=0;orthogonalLoop=1;jettySize=auto;html=1;exitX=1;exitY=0.5;exitDx=0;exitDy=0;exitPerimeter=0;entryX=0;entryY=0.5;entryDx=0;entryDy=0;entryPerimeter=0;endArrow=none;startFill=0;strokeWidth=4;" edge="1" parent="1" source="R8jiZ7DCDE4Kby83pJ52-16" target="R8jiZ7DCDE4Kby83pJ52-17">
          <mxGeometry relative="1" as="geometry" />
        </mxCell>
        <mxCell id="R8jiZ7DCDE4Kby83pJ52-21" style="rounded=0;orthogonalLoop=1;jettySize=auto;html=1;exitX=0.145;exitY=0.855;exitDx=0;exitDy=0;exitPerimeter=0;strokeWidth=4;endArrow=none;startFill=0;entryX=0.855;entryY=0.145;entryDx=0;entryDy=0;entryPerimeter=0;" edge="1" parent="1" source="R8jiZ7DCDE4Kby83pJ52-2" target="R8jiZ7DCDE4Kby83pJ52-16">
          <mxGeometry relative="1" as="geometry">
            <mxPoint x="430" y="440" as="targetPoint" />
          </mxGeometry>
        </mxCell>
      </root>
    </mxGraphModel>
  </diagram>
  <diagram id="_FKu4vJQReEDTQMHy0_d" name="第 2 页">
    <mxGraphModel dx="1117" dy="1489" grid="0" gridSize="10" guides="1" tooltips="1" connect="1" arrows="1" fold="1" page="0" pageScale="1" pageWidth="827" pageHeight="1169" math="0" shadow="0">
      <root>
        <mxCell id="0" />
        <mxCell id="1" parent="0" />
        <mxCell id="6bw9pDhxNZ4NDRlC-_Vf-51" value="" style="shape=table;startSize=0;container=1;collapsible=0;childLayout=tableLayout;" vertex="1" parent="1">
          <mxGeometry x="-146" y="-361" width="60" height="40" as="geometry" />
        </mxCell>
        <mxCell id="6bw9pDhxNZ4NDRlC-_Vf-52" value="" style="shape=tableRow;horizontal=0;startSize=0;swimlaneHead=0;swimlaneBody=0;strokeColor=inherit;top=0;left=0;bottom=0;right=0;collapsible=0;dropTarget=0;fillColor=none;points=[[0,0.5],[1,0.5]];portConstraint=eastwest;" vertex="1" parent="6bw9pDhxNZ4NDRlC-_Vf-51">
          <mxGeometry width="60" height="40" as="geometry" />
        </mxCell>
        <mxCell id="6bw9pDhxNZ4NDRlC-_Vf-53" value="" style="shape=partialRectangle;html=1;whiteSpace=wrap;connectable=0;strokeColor=inherit;overflow=hidden;fillColor=none;top=0;left=0;bottom=0;right=0;pointerEvents=1;" vertex="1" parent="6bw9pDhxNZ4NDRlC-_Vf-52">
          <mxGeometry width="60" height="40" as="geometry">
            <mxRectangle width="60" height="40" as="alternateBounds" />
          </mxGeometry>
        </mxCell>
        <mxCell id="6bw9pDhxNZ4NDRlC-_Vf-54" value="" style="shape=table;startSize=0;container=1;collapsible=0;childLayout=tableLayout;fillColor=#f8cecc;strokeColor=#000000;" vertex="1" parent="1">
          <mxGeometry x="-138" y="-49" width="50" height="293" as="geometry" />
        </mxCell>
        <mxCell id="6bw9pDhxNZ4NDRlC-_Vf-55" value="" style="shape=tableRow;horizontal=0;startSize=0;swimlaneHead=0;swimlaneBody=0;strokeColor=inherit;top=0;left=0;bottom=0;right=0;collapsible=0;dropTarget=0;fillColor=none;points=[[0,0.5],[1,0.5]];portConstraint=eastwest;" vertex="1" parent="6bw9pDhxNZ4NDRlC-_Vf-54">
          <mxGeometry width="50" height="58" as="geometry" />
        </mxCell>
        <mxCell id="6bw9pDhxNZ4NDRlC-_Vf-56" value="" style="shape=partialRectangle;html=1;whiteSpace=wrap;connectable=0;strokeColor=inherit;overflow=hidden;fillColor=none;top=0;left=0;bottom=0;right=0;pointerEvents=1;" vertex="1" parent="6bw9pDhxNZ4NDRlC-_Vf-55">
          <mxGeometry width="50" height="58" as="geometry">
            <mxRectangle width="50" height="58" as="alternateBounds" />
          </mxGeometry>
        </mxCell>
        <mxCell id="6bw9pDhxNZ4NDRlC-_Vf-57" value="" style="shape=tableRow;horizontal=0;startSize=0;swimlaneHead=0;swimlaneBody=0;strokeColor=inherit;top=0;left=0;bottom=0;right=0;collapsible=0;dropTarget=0;fillColor=none;points=[[0,0.5],[1,0.5]];portConstraint=eastwest;" vertex="1" parent="6bw9pDhxNZ4NDRlC-_Vf-54">
          <mxGeometry y="58" width="50" height="59" as="geometry" />
        </mxCell>
        <mxCell id="6bw9pDhxNZ4NDRlC-_Vf-58" value="" style="shape=partialRectangle;html=1;whiteSpace=wrap;connectable=0;overflow=hidden;top=0;left=0;bottom=0;right=0;pointerEvents=1;" vertex="1" parent="6bw9pDhxNZ4NDRlC-_Vf-57">
          <mxGeometry width="50" height="59" as="geometry">
            <mxRectangle width="50" height="59" as="alternateBounds" />
          </mxGeometry>
        </mxCell>
        <mxCell id="6bw9pDhxNZ4NDRlC-_Vf-59" value="" style="shape=tableRow;horizontal=0;startSize=0;swimlaneHead=0;swimlaneBody=0;strokeColor=inherit;top=0;left=0;bottom=0;right=0;collapsible=0;dropTarget=0;fillColor=none;points=[[0,0.5],[1,0.5]];portConstraint=eastwest;" vertex="1" parent="6bw9pDhxNZ4NDRlC-_Vf-54">
          <mxGeometry y="117" width="50" height="59" as="geometry" />
        </mxCell>
        <mxCell id="6bw9pDhxNZ4NDRlC-_Vf-60" value="" style="shape=partialRectangle;html=1;whiteSpace=wrap;connectable=0;strokeColor=inherit;overflow=hidden;fillColor=none;top=0;left=0;bottom=0;right=0;pointerEvents=1;" vertex="1" parent="6bw9pDhxNZ4NDRlC-_Vf-59">
          <mxGeometry width="50" height="59" as="geometry">
            <mxRectangle width="50" height="59" as="alternateBounds" />
          </mxGeometry>
        </mxCell>
        <mxCell id="6bw9pDhxNZ4NDRlC-_Vf-61" value="" style="shape=tableRow;horizontal=0;startSize=0;swimlaneHead=0;swimlaneBody=0;strokeColor=inherit;top=0;left=0;bottom=0;right=0;collapsible=0;dropTarget=0;fillColor=none;points=[[0,0.5],[1,0.5]];portConstraint=eastwest;" vertex="1" parent="6bw9pDhxNZ4NDRlC-_Vf-54">
          <mxGeometry y="176" width="50" height="59" as="geometry" />
        </mxCell>
        <mxCell id="6bw9pDhxNZ4NDRlC-_Vf-62" value="" style="shape=partialRectangle;html=1;whiteSpace=wrap;connectable=0;strokeColor=inherit;overflow=hidden;fillColor=none;top=0;left=0;bottom=0;right=0;pointerEvents=1;" vertex="1" parent="6bw9pDhxNZ4NDRlC-_Vf-61">
          <mxGeometry width="50" height="59" as="geometry">
            <mxRectangle width="50" height="59" as="alternateBounds" />
          </mxGeometry>
        </mxCell>
        <mxCell id="6bw9pDhxNZ4NDRlC-_Vf-63" style="shape=tableRow;horizontal=0;startSize=0;swimlaneHead=0;swimlaneBody=0;strokeColor=inherit;top=0;left=0;bottom=0;right=0;collapsible=0;dropTarget=0;fillColor=none;points=[[0,0.5],[1,0.5]];portConstraint=eastwest;" vertex="1" parent="6bw9pDhxNZ4NDRlC-_Vf-54">
          <mxGeometry y="235" width="50" height="58" as="geometry" />
        </mxCell>
        <mxCell id="6bw9pDhxNZ4NDRlC-_Vf-64" style="shape=partialRectangle;html=1;whiteSpace=wrap;connectable=0;strokeColor=inherit;overflow=hidden;fillColor=none;top=0;left=0;bottom=0;right=0;pointerEvents=1;" vertex="1" parent="6bw9pDhxNZ4NDRlC-_Vf-63">
          <mxGeometry width="50" height="58" as="geometry">
            <mxRectangle width="50" height="58" as="alternateBounds" />
          </mxGeometry>
        </mxCell>
        <mxCell id="6bw9pDhxNZ4NDRlC-_Vf-65" value="" style="edgeStyle=none;orthogonalLoop=1;jettySize=auto;html=1;rounded=0;fontSize=12;startSize=8;endSize=8;curved=1;" edge="1" parent="1">
          <mxGeometry width="120" relative="1" as="geometry">
            <mxPoint x="-74" y="-359" as="sourcePoint" />
            <mxPoint x="46" y="-359" as="targetPoint" />
            <Array as="points" />
          </mxGeometry>
        </mxCell>
        <mxCell id="6bw9pDhxNZ4NDRlC-_Vf-66" value="" style="ellipse;whiteSpace=wrap;html=1;" vertex="1" parent="1">
          <mxGeometry x="119" y="-386" width="70" height="33" as="geometry" />
        </mxCell>
        <mxCell id="6bw9pDhxNZ4NDRlC-_Vf-12" value="" style="shape=table;startSize=0;container=1;collapsible=0;childLayout=tableLayout;labelBorderColor=default;" vertex="1" parent="1">
          <mxGeometry x="44" y="-231" width="50" height="650" as="geometry" />
        </mxCell>
        <mxCell id="6bw9pDhxNZ4NDRlC-_Vf-13" value="" style="shape=tableRow;horizontal=0;startSize=0;swimlaneHead=0;swimlaneBody=0;strokeColor=inherit;top=0;left=0;bottom=0;right=0;collapsible=0;dropTarget=0;fillColor=none;points=[[0,0.5],[1,0.5]];portConstraint=eastwest;labelBackgroundColor=#CB9475;" vertex="1" parent="6bw9pDhxNZ4NDRlC-_Vf-12">
          <mxGeometry width="50" height="59" as="geometry" />
        </mxCell>
        <mxCell id="6bw9pDhxNZ4NDRlC-_Vf-14" value="" style="shape=partialRectangle;html=1;whiteSpace=wrap;connectable=0;strokeColor=#b85450;overflow=hidden;fillColor=#f8cecc;top=0;left=0;bottom=0;right=0;pointerEvents=1;labelBackgroundColor=default;textShadow=0;labelBorderColor=none;" vertex="1" parent="6bw9pDhxNZ4NDRlC-_Vf-13">
          <mxGeometry width="50" height="59" as="geometry">
            <mxRectangle width="50" height="59" as="alternateBounds" />
          </mxGeometry>
        </mxCell>
        <mxCell id="6bw9pDhxNZ4NDRlC-_Vf-15" value="" style="shape=tableRow;horizontal=0;startSize=0;swimlaneHead=0;swimlaneBody=0;strokeColor=inherit;top=0;left=0;bottom=0;right=0;collapsible=0;dropTarget=0;fillColor=none;points=[[0,0.5],[1,0.5]];portConstraint=eastwest;" vertex="1" parent="6bw9pDhxNZ4NDRlC-_Vf-12">
          <mxGeometry y="59" width="50" height="60" as="geometry" />
        </mxCell>
        <mxCell id="6bw9pDhxNZ4NDRlC-_Vf-16" value="" style="shape=partialRectangle;html=1;whiteSpace=wrap;connectable=0;strokeColor=inherit;overflow=hidden;fillColor=none;top=0;left=0;bottom=0;right=0;pointerEvents=1;" vertex="1" parent="6bw9pDhxNZ4NDRlC-_Vf-15">
          <mxGeometry width="50" height="60" as="geometry">
            <mxRectangle width="50" height="60" as="alternateBounds" />
          </mxGeometry>
        </mxCell>
        <mxCell id="6bw9pDhxNZ4NDRlC-_Vf-17" value="" style="shape=tableRow;horizontal=0;startSize=0;swimlaneHead=0;swimlaneBody=0;strokeColor=inherit;top=0;left=0;bottom=0;right=0;collapsible=0;dropTarget=0;fillColor=none;points=[[0,0.5],[1,0.5]];portConstraint=eastwest;" vertex="1" parent="6bw9pDhxNZ4NDRlC-_Vf-12">
          <mxGeometry y="119" width="50" height="58" as="geometry" />
        </mxCell>
        <mxCell id="6bw9pDhxNZ4NDRlC-_Vf-18" value="" style="shape=partialRectangle;html=1;whiteSpace=wrap;connectable=0;strokeColor=#b85450;overflow=hidden;fillColor=#f8cecc;top=0;left=0;bottom=0;right=0;pointerEvents=1;" vertex="1" parent="6bw9pDhxNZ4NDRlC-_Vf-17">
          <mxGeometry width="50" height="58" as="geometry">
            <mxRectangle width="50" height="58" as="alternateBounds" />
          </mxGeometry>
        </mxCell>
        <mxCell id="6bw9pDhxNZ4NDRlC-_Vf-19" value="" style="shape=tableRow;horizontal=0;startSize=0;swimlaneHead=0;swimlaneBody=0;strokeColor=inherit;top=0;left=0;bottom=0;right=0;collapsible=0;dropTarget=0;fillColor=none;points=[[0,0.5],[1,0.5]];portConstraint=eastwest;" vertex="1" parent="6bw9pDhxNZ4NDRlC-_Vf-12">
          <mxGeometry y="177" width="50" height="60" as="geometry" />
        </mxCell>
        <mxCell id="6bw9pDhxNZ4NDRlC-_Vf-20" value="" style="shape=partialRectangle;html=1;whiteSpace=wrap;connectable=0;strokeColor=#b85450;overflow=hidden;fillColor=#f8cecc;top=0;left=0;bottom=0;right=0;pointerEvents=1;" vertex="1" parent="6bw9pDhxNZ4NDRlC-_Vf-19">
          <mxGeometry width="50" height="60" as="geometry">
            <mxRectangle width="50" height="60" as="alternateBounds" />
          </mxGeometry>
        </mxCell>
        <mxCell id="6bw9pDhxNZ4NDRlC-_Vf-21" value="" style="shape=tableRow;horizontal=0;startSize=0;swimlaneHead=0;swimlaneBody=0;strokeColor=inherit;top=0;left=0;bottom=0;right=0;collapsible=0;dropTarget=0;fillColor=none;points=[[0,0.5],[1,0.5]];portConstraint=eastwest;" vertex="1" parent="6bw9pDhxNZ4NDRlC-_Vf-12">
          <mxGeometry y="237" width="50" height="59" as="geometry" />
        </mxCell>
        <mxCell id="6bw9pDhxNZ4NDRlC-_Vf-22" value="" style="shape=partialRectangle;html=1;whiteSpace=wrap;connectable=0;strokeColor=inherit;overflow=hidden;fillColor=none;top=0;left=0;bottom=0;right=0;pointerEvents=1;" vertex="1" parent="6bw9pDhxNZ4NDRlC-_Vf-21">
          <mxGeometry width="50" height="59" as="geometry">
            <mxRectangle width="50" height="59" as="alternateBounds" />
          </mxGeometry>
        </mxCell>
        <mxCell id="6bw9pDhxNZ4NDRlC-_Vf-23" style="shape=tableRow;horizontal=0;startSize=0;swimlaneHead=0;swimlaneBody=0;strokeColor=inherit;top=0;left=0;bottom=0;right=0;collapsible=0;dropTarget=0;fillColor=none;points=[[0,0.5],[1,0.5]];portConstraint=eastwest;" vertex="1" parent="6bw9pDhxNZ4NDRlC-_Vf-12">
          <mxGeometry y="296" width="50" height="59" as="geometry" />
        </mxCell>
        <mxCell id="6bw9pDhxNZ4NDRlC-_Vf-24" style="shape=partialRectangle;html=1;whiteSpace=wrap;connectable=0;strokeColor=#b85450;overflow=hidden;fillColor=#f8cecc;top=0;left=0;bottom=0;right=0;pointerEvents=1;" vertex="1" parent="6bw9pDhxNZ4NDRlC-_Vf-23">
          <mxGeometry width="50" height="59" as="geometry">
            <mxRectangle width="50" height="59" as="alternateBounds" />
          </mxGeometry>
        </mxCell>
        <mxCell id="6bw9pDhxNZ4NDRlC-_Vf-25" style="shape=tableRow;horizontal=0;startSize=0;swimlaneHead=0;swimlaneBody=0;strokeColor=inherit;top=0;left=0;bottom=0;right=0;collapsible=0;dropTarget=0;fillColor=none;points=[[0,0.5],[1,0.5]];portConstraint=eastwest;" vertex="1" parent="6bw9pDhxNZ4NDRlC-_Vf-12">
          <mxGeometry y="355" width="50" height="59" as="geometry" />
        </mxCell>
        <mxCell id="6bw9pDhxNZ4NDRlC-_Vf-26" style="shape=partialRectangle;html=1;whiteSpace=wrap;connectable=0;strokeColor=#b85450;overflow=hidden;fillColor=#f8cecc;top=0;left=0;bottom=0;right=0;pointerEvents=1;" vertex="1" parent="6bw9pDhxNZ4NDRlC-_Vf-25">
          <mxGeometry width="50" height="59" as="geometry">
            <mxRectangle width="50" height="59" as="alternateBounds" />
          </mxGeometry>
        </mxCell>
        <mxCell id="6bw9pDhxNZ4NDRlC-_Vf-27" style="shape=tableRow;horizontal=0;startSize=0;swimlaneHead=0;swimlaneBody=0;strokeColor=inherit;top=0;left=0;bottom=0;right=0;collapsible=0;dropTarget=0;fillColor=none;points=[[0,0.5],[1,0.5]];portConstraint=eastwest;" vertex="1" parent="6bw9pDhxNZ4NDRlC-_Vf-12">
          <mxGeometry y="414" width="50" height="59" as="geometry" />
        </mxCell>
        <mxCell id="6bw9pDhxNZ4NDRlC-_Vf-28" style="shape=partialRectangle;html=1;whiteSpace=wrap;connectable=0;strokeColor=inherit;overflow=hidden;fillColor=none;top=0;left=0;bottom=0;right=0;pointerEvents=1;" vertex="1" parent="6bw9pDhxNZ4NDRlC-_Vf-27">
          <mxGeometry width="50" height="59" as="geometry">
            <mxRectangle width="50" height="59" as="alternateBounds" />
          </mxGeometry>
        </mxCell>
        <mxCell id="6bw9pDhxNZ4NDRlC-_Vf-29" style="shape=tableRow;horizontal=0;startSize=0;swimlaneHead=0;swimlaneBody=0;strokeColor=inherit;top=0;left=0;bottom=0;right=0;collapsible=0;dropTarget=0;fillColor=none;points=[[0,0.5],[1,0.5]];portConstraint=eastwest;" vertex="1" parent="6bw9pDhxNZ4NDRlC-_Vf-12">
          <mxGeometry y="473" width="50" height="59" as="geometry" />
        </mxCell>
        <mxCell id="6bw9pDhxNZ4NDRlC-_Vf-30" style="shape=partialRectangle;html=1;whiteSpace=wrap;connectable=0;strokeColor=#b85450;overflow=hidden;fillColor=#f8cecc;top=0;left=0;bottom=0;right=0;pointerEvents=1;" vertex="1" parent="6bw9pDhxNZ4NDRlC-_Vf-29">
          <mxGeometry width="50" height="59" as="geometry">
            <mxRectangle width="50" height="59" as="alternateBounds" />
          </mxGeometry>
        </mxCell>
        <mxCell id="6bw9pDhxNZ4NDRlC-_Vf-31" style="shape=tableRow;horizontal=0;startSize=0;swimlaneHead=0;swimlaneBody=0;strokeColor=inherit;top=0;left=0;bottom=0;right=0;collapsible=0;dropTarget=0;fillColor=none;points=[[0,0.5],[1,0.5]];portConstraint=eastwest;" vertex="1" parent="6bw9pDhxNZ4NDRlC-_Vf-12">
          <mxGeometry y="532" width="50" height="59" as="geometry" />
        </mxCell>
        <mxCell id="6bw9pDhxNZ4NDRlC-_Vf-32" style="shape=partialRectangle;html=1;whiteSpace=wrap;connectable=0;strokeColor=inherit;overflow=hidden;fillColor=none;top=0;left=0;bottom=0;right=0;pointerEvents=1;" vertex="1" parent="6bw9pDhxNZ4NDRlC-_Vf-31">
          <mxGeometry width="50" height="59" as="geometry">
            <mxRectangle width="50" height="59" as="alternateBounds" />
          </mxGeometry>
        </mxCell>
        <mxCell id="6bw9pDhxNZ4NDRlC-_Vf-33" style="shape=tableRow;horizontal=0;startSize=0;swimlaneHead=0;swimlaneBody=0;strokeColor=inherit;top=0;left=0;bottom=0;right=0;collapsible=0;dropTarget=0;fillColor=none;points=[[0,0.5],[1,0.5]];portConstraint=eastwest;" vertex="1" parent="6bw9pDhxNZ4NDRlC-_Vf-12">
          <mxGeometry y="591" width="50" height="59" as="geometry" />
        </mxCell>
        <mxCell id="6bw9pDhxNZ4NDRlC-_Vf-34" style="shape=partialRectangle;html=1;whiteSpace=wrap;connectable=0;strokeColor=#b85450;overflow=hidden;fillColor=#f8cecc;top=0;left=0;bottom=0;right=0;pointerEvents=1;" vertex="1" parent="6bw9pDhxNZ4NDRlC-_Vf-33">
          <mxGeometry width="50" height="59" as="geometry">
            <mxRectangle width="50" height="59" as="alternateBounds" />
          </mxGeometry>
        </mxCell>
        <mxCell id="6bw9pDhxNZ4NDRlC-_Vf-67" value="" style="edgeStyle=none;orthogonalLoop=1;jettySize=auto;html=1;shape=flexArrow;rounded=1;startSize=8;endSize=8;fontSize=12;curved=1;" edge="1" parent="1">
          <mxGeometry width="140" relative="1" as="geometry">
            <mxPoint x="-83" y="97" as="sourcePoint" />
            <mxPoint x="41" y="97" as="targetPoint" />
            <Array as="points" />
          </mxGeometry>
        </mxCell>
        <mxCell id="6bw9pDhxNZ4NDRlC-_Vf-69" value="" style="shape=table;startSize=0;container=1;collapsible=0;childLayout=tableLayout;" vertex="1" parent="1">
          <mxGeometry x="125" y="-231" width="100" height="650" as="geometry" />
        </mxCell>
        <mxCell id="6bw9pDhxNZ4NDRlC-_Vf-70" value="" style="shape=tableRow;horizontal=0;startSize=0;swimlaneHead=0;swimlaneBody=0;strokeColor=inherit;top=0;left=0;bottom=0;right=0;collapsible=0;dropTarget=0;fillColor=none;points=[[0,0.5],[1,0.5]];portConstraint=eastwest;" vertex="1" parent="6bw9pDhxNZ4NDRlC-_Vf-69">
          <mxGeometry width="100" height="59" as="geometry" />
        </mxCell>
        <mxCell id="6bw9pDhxNZ4NDRlC-_Vf-71" value="" style="shape=partialRectangle;html=1;whiteSpace=wrap;connectable=0;strokeColor=#b85450;overflow=hidden;fillColor=#f8cecc;top=0;left=0;bottom=0;right=0;pointerEvents=1;" vertex="1" parent="6bw9pDhxNZ4NDRlC-_Vf-70">
          <mxGeometry width="50" height="59" as="geometry">
            <mxRectangle width="50" height="59" as="alternateBounds" />
          </mxGeometry>
        </mxCell>
        <mxCell id="6bw9pDhxNZ4NDRlC-_Vf-72" value="" style="shape=partialRectangle;html=1;whiteSpace=wrap;connectable=0;strokeColor=inherit;overflow=hidden;fillColor=none;top=0;left=0;bottom=0;right=0;pointerEvents=1;" vertex="1" parent="6bw9pDhxNZ4NDRlC-_Vf-70">
          <mxGeometry x="50" width="50" height="59" as="geometry">
            <mxRectangle width="50" height="59" as="alternateBounds" />
          </mxGeometry>
        </mxCell>
        <mxCell id="6bw9pDhxNZ4NDRlC-_Vf-73" value="" style="shape=tableRow;horizontal=0;startSize=0;swimlaneHead=0;swimlaneBody=0;strokeColor=inherit;top=0;left=0;bottom=0;right=0;collapsible=0;dropTarget=0;fillColor=none;points=[[0,0.5],[1,0.5]];portConstraint=eastwest;" vertex="1" parent="6bw9pDhxNZ4NDRlC-_Vf-69">
          <mxGeometry y="59" width="100" height="59" as="geometry" />
        </mxCell>
        <mxCell id="6bw9pDhxNZ4NDRlC-_Vf-74" value="" style="shape=partialRectangle;html=1;whiteSpace=wrap;connectable=0;strokeColor=inherit;overflow=hidden;fillColor=none;top=0;left=0;bottom=0;right=0;pointerEvents=1;" vertex="1" parent="6bw9pDhxNZ4NDRlC-_Vf-73">
          <mxGeometry width="50" height="59" as="geometry">
            <mxRectangle width="50" height="59" as="alternateBounds" />
          </mxGeometry>
        </mxCell>
        <mxCell id="6bw9pDhxNZ4NDRlC-_Vf-75" value="" style="shape=partialRectangle;html=1;whiteSpace=wrap;connectable=0;strokeColor=#000000;overflow=hidden;fillColor=#f8cecc;top=0;left=0;bottom=0;right=0;pointerEvents=1;" vertex="1" parent="6bw9pDhxNZ4NDRlC-_Vf-73">
          <mxGeometry x="50" width="50" height="59" as="geometry">
            <mxRectangle width="50" height="59" as="alternateBounds" />
          </mxGeometry>
        </mxCell>
        <mxCell id="6bw9pDhxNZ4NDRlC-_Vf-76" value="" style="shape=tableRow;horizontal=0;startSize=0;swimlaneHead=0;swimlaneBody=0;strokeColor=inherit;top=0;left=0;bottom=0;right=0;collapsible=0;dropTarget=0;fillColor=none;points=[[0,0.5],[1,0.5]];portConstraint=eastwest;" vertex="1" parent="6bw9pDhxNZ4NDRlC-_Vf-69">
          <mxGeometry y="118" width="100" height="59" as="geometry" />
        </mxCell>
        <mxCell id="6bw9pDhxNZ4NDRlC-_Vf-77" value="" style="shape=partialRectangle;html=1;whiteSpace=wrap;connectable=0;strokeColor=inherit;overflow=hidden;fillColor=none;top=0;left=0;bottom=0;right=0;pointerEvents=1;" vertex="1" parent="6bw9pDhxNZ4NDRlC-_Vf-76">
          <mxGeometry width="50" height="59" as="geometry">
            <mxRectangle width="50" height="59" as="alternateBounds" />
          </mxGeometry>
        </mxCell>
        <mxCell id="6bw9pDhxNZ4NDRlC-_Vf-78" value="" style="shape=partialRectangle;html=1;whiteSpace=wrap;connectable=0;strokeColor=#b85450;overflow=hidden;fillColor=#f8cecc;top=0;left=0;bottom=0;right=0;pointerEvents=1;" vertex="1" parent="6bw9pDhxNZ4NDRlC-_Vf-76">
          <mxGeometry x="50" width="50" height="59" as="geometry">
            <mxRectangle width="50" height="59" as="alternateBounds" />
          </mxGeometry>
        </mxCell>
        <mxCell id="6bw9pDhxNZ4NDRlC-_Vf-79" value="" style="shape=tableRow;horizontal=0;startSize=0;swimlaneHead=0;swimlaneBody=0;strokeColor=inherit;top=0;left=0;bottom=0;right=0;collapsible=0;dropTarget=0;fillColor=none;points=[[0,0.5],[1,0.5]];portConstraint=eastwest;" vertex="1" parent="6bw9pDhxNZ4NDRlC-_Vf-69">
          <mxGeometry y="177" width="100" height="59" as="geometry" />
        </mxCell>
        <mxCell id="6bw9pDhxNZ4NDRlC-_Vf-80" value="" style="shape=partialRectangle;html=1;whiteSpace=wrap;connectable=0;strokeColor=#b85450;overflow=hidden;fillColor=#f8cecc;top=0;left=0;bottom=0;right=0;pointerEvents=1;" vertex="1" parent="6bw9pDhxNZ4NDRlC-_Vf-79">
          <mxGeometry width="50" height="59" as="geometry">
            <mxRectangle width="50" height="59" as="alternateBounds" />
          </mxGeometry>
        </mxCell>
        <mxCell id="6bw9pDhxNZ4NDRlC-_Vf-81" value="" style="shape=partialRectangle;html=1;whiteSpace=wrap;connectable=0;strokeColor=inherit;overflow=hidden;fillColor=none;top=0;left=0;bottom=0;right=0;pointerEvents=1;" vertex="1" parent="6bw9pDhxNZ4NDRlC-_Vf-79">
          <mxGeometry x="50" width="50" height="59" as="geometry">
            <mxRectangle width="50" height="59" as="alternateBounds" />
          </mxGeometry>
        </mxCell>
        <mxCell id="6bw9pDhxNZ4NDRlC-_Vf-82" value="" style="shape=tableRow;horizontal=0;startSize=0;swimlaneHead=0;swimlaneBody=0;strokeColor=inherit;top=0;left=0;bottom=0;right=0;collapsible=0;dropTarget=0;fillColor=none;points=[[0,0.5],[1,0.5]];portConstraint=eastwest;" vertex="1" parent="6bw9pDhxNZ4NDRlC-_Vf-69">
          <mxGeometry y="236" width="100" height="59" as="geometry" />
        </mxCell>
        <mxCell id="6bw9pDhxNZ4NDRlC-_Vf-83" value="" style="shape=partialRectangle;html=1;whiteSpace=wrap;connectable=0;strokeColor=#b85450;overflow=hidden;fillColor=#f8cecc;top=0;left=0;bottom=0;right=0;pointerEvents=1;" vertex="1" parent="6bw9pDhxNZ4NDRlC-_Vf-82">
          <mxGeometry width="50" height="59" as="geometry">
            <mxRectangle width="50" height="59" as="alternateBounds" />
          </mxGeometry>
        </mxCell>
        <mxCell id="6bw9pDhxNZ4NDRlC-_Vf-84" value="" style="shape=partialRectangle;html=1;whiteSpace=wrap;connectable=0;strokeColor=#b85450;overflow=hidden;fillColor=#f8cecc;top=0;left=0;bottom=0;right=0;pointerEvents=1;" vertex="1" parent="6bw9pDhxNZ4NDRlC-_Vf-82">
          <mxGeometry x="50" width="50" height="59" as="geometry">
            <mxRectangle width="50" height="59" as="alternateBounds" />
          </mxGeometry>
        </mxCell>
        <mxCell id="6bw9pDhxNZ4NDRlC-_Vf-85" value="" style="shape=tableRow;horizontal=0;startSize=0;swimlaneHead=0;swimlaneBody=0;strokeColor=inherit;top=0;left=0;bottom=0;right=0;collapsible=0;dropTarget=0;fillColor=none;points=[[0,0.5],[1,0.5]];portConstraint=eastwest;" vertex="1" parent="6bw9pDhxNZ4NDRlC-_Vf-69">
          <mxGeometry y="295" width="100" height="60" as="geometry" />
        </mxCell>
        <mxCell id="6bw9pDhxNZ4NDRlC-_Vf-86" value="" style="shape=partialRectangle;html=1;whiteSpace=wrap;connectable=0;strokeColor=inherit;overflow=hidden;fillColor=none;top=0;left=0;bottom=0;right=0;pointerEvents=1;" vertex="1" parent="6bw9pDhxNZ4NDRlC-_Vf-85">
          <mxGeometry width="50" height="60" as="geometry">
            <mxRectangle width="50" height="60" as="alternateBounds" />
          </mxGeometry>
        </mxCell>
        <mxCell id="6bw9pDhxNZ4NDRlC-_Vf-87" value="" style="shape=partialRectangle;html=1;whiteSpace=wrap;connectable=0;strokeColor=#b85450;overflow=hidden;fillColor=#f8cecc;top=0;left=0;bottom=0;right=0;pointerEvents=1;" vertex="1" parent="6bw9pDhxNZ4NDRlC-_Vf-85">
          <mxGeometry x="50" width="50" height="60" as="geometry">
            <mxRectangle width="50" height="60" as="alternateBounds" />
          </mxGeometry>
        </mxCell>
        <mxCell id="6bw9pDhxNZ4NDRlC-_Vf-88" value="" style="shape=tableRow;horizontal=0;startSize=0;swimlaneHead=0;swimlaneBody=0;strokeColor=inherit;top=0;left=0;bottom=0;right=0;collapsible=0;dropTarget=0;fillColor=none;points=[[0,0.5],[1,0.5]];portConstraint=eastwest;" vertex="1" parent="6bw9pDhxNZ4NDRlC-_Vf-69">
          <mxGeometry y="355" width="100" height="59" as="geometry" />
        </mxCell>
        <mxCell id="6bw9pDhxNZ4NDRlC-_Vf-89" value="" style="shape=partialRectangle;html=1;whiteSpace=wrap;connectable=0;strokeColor=#b85450;overflow=hidden;fillColor=#f8cecc;top=0;left=0;bottom=0;right=0;pointerEvents=1;" vertex="1" parent="6bw9pDhxNZ4NDRlC-_Vf-88">
          <mxGeometry width="50" height="59" as="geometry">
            <mxRectangle width="50" height="59" as="alternateBounds" />
          </mxGeometry>
        </mxCell>
        <mxCell id="6bw9pDhxNZ4NDRlC-_Vf-90" value="" style="shape=partialRectangle;html=1;whiteSpace=wrap;connectable=0;strokeColor=inherit;overflow=hidden;fillColor=none;top=0;left=0;bottom=0;right=0;pointerEvents=1;" vertex="1" parent="6bw9pDhxNZ4NDRlC-_Vf-88">
          <mxGeometry x="50" width="50" height="59" as="geometry">
            <mxRectangle width="50" height="59" as="alternateBounds" />
          </mxGeometry>
        </mxCell>
        <mxCell id="6bw9pDhxNZ4NDRlC-_Vf-91" value="" style="shape=tableRow;horizontal=0;startSize=0;swimlaneHead=0;swimlaneBody=0;strokeColor=inherit;top=0;left=0;bottom=0;right=0;collapsible=0;dropTarget=0;fillColor=none;points=[[0,0.5],[1,0.5]];portConstraint=eastwest;" vertex="1" parent="6bw9pDhxNZ4NDRlC-_Vf-69">
          <mxGeometry y="414" width="100" height="59" as="geometry" />
        </mxCell>
        <mxCell id="6bw9pDhxNZ4NDRlC-_Vf-92" value="" style="shape=partialRectangle;html=1;whiteSpace=wrap;connectable=0;strokeColor=#b85450;overflow=hidden;fillColor=#f8cecc;top=0;left=0;bottom=0;right=0;pointerEvents=1;" vertex="1" parent="6bw9pDhxNZ4NDRlC-_Vf-91">
          <mxGeometry width="50" height="59" as="geometry">
            <mxRectangle width="50" height="59" as="alternateBounds" />
          </mxGeometry>
        </mxCell>
        <mxCell id="6bw9pDhxNZ4NDRlC-_Vf-93" value="" style="shape=partialRectangle;html=1;whiteSpace=wrap;connectable=0;strokeColor=#b85450;overflow=hidden;fillColor=#f8cecc;top=0;left=0;bottom=0;right=0;pointerEvents=1;" vertex="1" parent="6bw9pDhxNZ4NDRlC-_Vf-91">
          <mxGeometry x="50" width="50" height="59" as="geometry">
            <mxRectangle width="50" height="59" as="alternateBounds" />
          </mxGeometry>
        </mxCell>
        <mxCell id="6bw9pDhxNZ4NDRlC-_Vf-94" value="" style="shape=tableRow;horizontal=0;startSize=0;swimlaneHead=0;swimlaneBody=0;strokeColor=inherit;top=0;left=0;bottom=0;right=0;collapsible=0;dropTarget=0;fillColor=none;points=[[0,0.5],[1,0.5]];portConstraint=eastwest;" vertex="1" parent="6bw9pDhxNZ4NDRlC-_Vf-69">
          <mxGeometry y="473" width="100" height="59" as="geometry" />
        </mxCell>
        <mxCell id="6bw9pDhxNZ4NDRlC-_Vf-95" value="" style="shape=partialRectangle;html=1;whiteSpace=wrap;connectable=0;strokeColor=inherit;overflow=hidden;fillColor=none;top=0;left=0;bottom=0;right=0;pointerEvents=1;" vertex="1" parent="6bw9pDhxNZ4NDRlC-_Vf-94">
          <mxGeometry width="50" height="59" as="geometry">
            <mxRectangle width="50" height="59" as="alternateBounds" />
          </mxGeometry>
        </mxCell>
        <mxCell id="6bw9pDhxNZ4NDRlC-_Vf-96" value="" style="shape=partialRectangle;html=1;whiteSpace=wrap;connectable=0;strokeColor=#b85450;overflow=hidden;fillColor=#f8cecc;top=0;left=0;bottom=0;right=0;pointerEvents=1;" vertex="1" parent="6bw9pDhxNZ4NDRlC-_Vf-94">
          <mxGeometry x="50" width="50" height="59" as="geometry">
            <mxRectangle width="50" height="59" as="alternateBounds" />
          </mxGeometry>
        </mxCell>
        <mxCell id="6bw9pDhxNZ4NDRlC-_Vf-97" value="" style="shape=tableRow;horizontal=0;startSize=0;swimlaneHead=0;swimlaneBody=0;strokeColor=inherit;top=0;left=0;bottom=0;right=0;collapsible=0;dropTarget=0;fillColor=none;points=[[0,0.5],[1,0.5]];portConstraint=eastwest;" vertex="1" parent="6bw9pDhxNZ4NDRlC-_Vf-69">
          <mxGeometry y="532" width="100" height="59" as="geometry" />
        </mxCell>
        <mxCell id="6bw9pDhxNZ4NDRlC-_Vf-98" value="" style="shape=partialRectangle;html=1;whiteSpace=wrap;connectable=0;strokeColor=inherit;overflow=hidden;fillColor=none;top=0;left=0;bottom=0;right=0;pointerEvents=1;" vertex="1" parent="6bw9pDhxNZ4NDRlC-_Vf-97">
          <mxGeometry width="50" height="59" as="geometry">
            <mxRectangle width="50" height="59" as="alternateBounds" />
          </mxGeometry>
        </mxCell>
        <mxCell id="6bw9pDhxNZ4NDRlC-_Vf-99" value="" style="shape=partialRectangle;html=1;whiteSpace=wrap;connectable=0;strokeColor=inherit;overflow=hidden;fillColor=none;top=0;left=0;bottom=0;right=0;pointerEvents=1;" vertex="1" parent="6bw9pDhxNZ4NDRlC-_Vf-97">
          <mxGeometry x="50" width="50" height="59" as="geometry">
            <mxRectangle width="50" height="59" as="alternateBounds" />
          </mxGeometry>
        </mxCell>
        <mxCell id="6bw9pDhxNZ4NDRlC-_Vf-100" value="" style="shape=tableRow;horizontal=0;startSize=0;swimlaneHead=0;swimlaneBody=0;strokeColor=inherit;top=0;left=0;bottom=0;right=0;collapsible=0;dropTarget=0;fillColor=none;points=[[0,0.5],[1,0.5]];portConstraint=eastwest;" vertex="1" parent="6bw9pDhxNZ4NDRlC-_Vf-69">
          <mxGeometry y="591" width="100" height="59" as="geometry" />
        </mxCell>
        <mxCell id="6bw9pDhxNZ4NDRlC-_Vf-101" value="" style="shape=partialRectangle;html=1;whiteSpace=wrap;connectable=0;strokeColor=#b85450;overflow=hidden;fillColor=#f8cecc;top=0;left=0;bottom=0;right=0;pointerEvents=1;" vertex="1" parent="6bw9pDhxNZ4NDRlC-_Vf-100">
          <mxGeometry width="50" height="59" as="geometry">
            <mxRectangle width="50" height="59" as="alternateBounds" />
          </mxGeometry>
        </mxCell>
        <mxCell id="6bw9pDhxNZ4NDRlC-_Vf-102" value="" style="shape=partialRectangle;html=1;whiteSpace=wrap;connectable=0;strokeColor=inherit;overflow=hidden;fillColor=none;top=0;left=0;bottom=0;right=0;pointerEvents=1;" vertex="1" parent="6bw9pDhxNZ4NDRlC-_Vf-100">
          <mxGeometry x="50" width="50" height="59" as="geometry">
            <mxRectangle width="50" height="59" as="alternateBounds" />
          </mxGeometry>
        </mxCell>
        <mxCell id="6bw9pDhxNZ4NDRlC-_Vf-105" value="" style="shape=singleArrow;whiteSpace=wrap;html=1;arrowWidth=0.4;arrowSize=0.4;" vertex="1" parent="1">
          <mxGeometry x="186" y="-367" width="80" height="60" as="geometry" />
        </mxCell>
        <mxCell id="6bw9pDhxNZ4NDRlC-_Vf-106" value="" style="edgeStyle=none;orthogonalLoop=1;jettySize=auto;html=1;shape=flexArrow;rounded=1;startSize=8;endSize=8;fontSize=12;curved=1;" edge="1" parent="1">
          <mxGeometry width="140" relative="1" as="geometry">
            <mxPoint x="234" y="93.5" as="sourcePoint" />
            <mxPoint x="374" y="93.5" as="targetPoint" />
            <Array as="points" />
          </mxGeometry>
        </mxCell>
        <mxCell id="8zCZ0T2Cg7yPwq4z_xhd-1" style="edgeStyle=orthogonalEdgeStyle;rounded=0;orthogonalLoop=1;jettySize=auto;html=1;fontSize=12;startSize=8;endSize=8;elbow=vertical;entryX=0.56;entryY=1;entryDx=0;entryDy=0;entryPerimeter=0;" edge="1" parent="1" target="6bw9pDhxNZ4NDRlC-_Vf-63">
          <mxGeometry relative="1" as="geometry">
            <mxPoint x="456" y="502" as="targetPoint" />
            <mxPoint x="464" y="128.00232207792217" as="sourcePoint" />
            <Array as="points">
              <mxPoint x="465" y="128" />
              <mxPoint x="465" y="481" />
              <mxPoint x="-110" y="481" />
            </Array>
          </mxGeometry>
        </mxCell>
        <mxCell id="Zrtbg2O2g32vVYBfQ5t2-1" value="" style="rounded=0;whiteSpace=wrap;html=1;" vertex="1" parent="1">
          <mxGeometry x="398" y="54" width="123" height="74" as="geometry" />
        </mxCell>
      </root>
    </mxGraphModel>
  </diagram>
  <diagram id="J-r_CpbLqWlN1y0CwIUh" name="第 3 页">
    <mxGraphModel dx="1117" dy="1089" grid="0" gridSize="10" guides="1" tooltips="1" connect="1" arrows="1" fold="1" page="0" pageScale="1" pageWidth="827" pageHeight="1169" math="0" shadow="0">
      <root>
        <mxCell id="0" />
        <mxCell id="1" parent="0" />
        <mxCell id="nX05s3BBMZWombWYPu1h-14" value="Table" style="shape=table;startSize=30;container=1;collapsible=0;childLayout=tableLayout;" vertex="1" parent="1">
          <mxGeometry x="-133" y="155" width="360" height="133" as="geometry" />
        </mxCell>
        <mxCell id="nX05s3BBMZWombWYPu1h-15" value="" style="shape=tableRow;horizontal=0;startSize=0;swimlaneHead=0;swimlaneBody=0;strokeColor=inherit;top=0;left=0;bottom=0;right=0;collapsible=0;dropTarget=0;fillColor=none;points=[[0,0.5],[1,0.5]];portConstraint=eastwest;" vertex="1" parent="nX05s3BBMZWombWYPu1h-14">
          <mxGeometry y="30" width="360" height="32" as="geometry" />
        </mxCell>
        <mxCell id="nX05s3BBMZWombWYPu1h-16" value="vertex 1" style="shape=partialRectangle;html=1;whiteSpace=wrap;connectable=0;strokeColor=inherit;overflow=hidden;fillColor=none;top=0;left=0;bottom=0;right=0;pointerEvents=1;" vertex="1" parent="nX05s3BBMZWombWYPu1h-15">
          <mxGeometry width="60" height="32" as="geometry">
            <mxRectangle width="60" height="32" as="alternateBounds" />
          </mxGeometry>
        </mxCell>
        <mxCell id="nX05s3BBMZWombWYPu1h-17" value="vertex 2" style="shape=partialRectangle;html=1;whiteSpace=wrap;connectable=0;strokeColor=inherit;overflow=hidden;fillColor=none;top=0;left=0;bottom=0;right=0;pointerEvents=1;" vertex="1" parent="nX05s3BBMZWombWYPu1h-15">
          <mxGeometry x="60" width="60" height="32" as="geometry">
            <mxRectangle width="60" height="32" as="alternateBounds" />
          </mxGeometry>
        </mxCell>
        <mxCell id="nX05s3BBMZWombWYPu1h-18" value="" style="shape=partialRectangle;html=1;whiteSpace=wrap;connectable=0;strokeColor=inherit;overflow=hidden;fillColor=none;top=0;left=0;bottom=0;right=0;pointerEvents=1;" vertex="1" parent="nX05s3BBMZWombWYPu1h-15">
          <mxGeometry x="120" width="60" height="32" as="geometry">
            <mxRectangle width="60" height="32" as="alternateBounds" />
          </mxGeometry>
        </mxCell>
        <mxCell id="nX05s3BBMZWombWYPu1h-19" value="" style="shape=partialRectangle;html=1;whiteSpace=wrap;connectable=0;strokeColor=inherit;overflow=hidden;fillColor=none;top=0;left=0;bottom=0;right=0;pointerEvents=1;" vertex="1" parent="nX05s3BBMZWombWYPu1h-15">
          <mxGeometry x="180" width="60" height="32" as="geometry">
            <mxRectangle width="60" height="32" as="alternateBounds" />
          </mxGeometry>
        </mxCell>
        <mxCell id="nX05s3BBMZWombWYPu1h-25" style="shape=partialRectangle;html=1;whiteSpace=wrap;connectable=0;strokeColor=inherit;overflow=hidden;fillColor=none;top=0;left=0;bottom=0;right=0;pointerEvents=1;" vertex="1" parent="nX05s3BBMZWombWYPu1h-15">
          <mxGeometry x="240" width="60" height="32" as="geometry">
            <mxRectangle width="60" height="32" as="alternateBounds" />
          </mxGeometry>
        </mxCell>
        <mxCell id="nX05s3BBMZWombWYPu1h-27" style="shape=partialRectangle;html=1;whiteSpace=wrap;connectable=0;strokeColor=inherit;overflow=hidden;fillColor=none;top=0;left=0;bottom=0;right=0;pointerEvents=1;" vertex="1" parent="nX05s3BBMZWombWYPu1h-15">
          <mxGeometry x="300" width="60" height="32" as="geometry">
            <mxRectangle width="60" height="32" as="alternateBounds" />
          </mxGeometry>
        </mxCell>
        <mxCell id="nX05s3BBMZWombWYPu1h-20" value="" style="shape=tableRow;horizontal=0;startSize=0;swimlaneHead=0;swimlaneBody=0;strokeColor=inherit;top=0;left=0;bottom=0;right=0;collapsible=0;dropTarget=0;fillColor=none;points=[[0,0.5],[1,0.5]];portConstraint=eastwest;" vertex="1" parent="nX05s3BBMZWombWYPu1h-14">
          <mxGeometry y="62" width="360" height="71" as="geometry" />
        </mxCell>
        <mxCell id="nX05s3BBMZWombWYPu1h-21" value="" style="shape=partialRectangle;html=1;whiteSpace=wrap;connectable=0;strokeColor=inherit;overflow=hidden;fillColor=none;top=0;left=0;bottom=0;right=0;pointerEvents=1;" vertex="1" parent="nX05s3BBMZWombWYPu1h-20">
          <mxGeometry width="60" height="71" as="geometry">
            <mxRectangle width="60" height="71" as="alternateBounds" />
          </mxGeometry>
        </mxCell>
        <mxCell id="nX05s3BBMZWombWYPu1h-22" value="" style="shape=partialRectangle;html=1;whiteSpace=wrap;connectable=0;strokeColor=inherit;overflow=hidden;fillColor=none;top=0;left=0;bottom=0;right=0;pointerEvents=1;" vertex="1" parent="nX05s3BBMZWombWYPu1h-20">
          <mxGeometry x="60" width="60" height="71" as="geometry">
            <mxRectangle width="60" height="71" as="alternateBounds" />
          </mxGeometry>
        </mxCell>
        <mxCell id="nX05s3BBMZWombWYPu1h-23" value="" style="shape=partialRectangle;html=1;whiteSpace=wrap;connectable=0;strokeColor=inherit;overflow=hidden;fillColor=none;top=0;left=0;bottom=0;right=0;pointerEvents=1;" vertex="1" parent="nX05s3BBMZWombWYPu1h-20">
          <mxGeometry x="120" width="60" height="71" as="geometry">
            <mxRectangle width="60" height="71" as="alternateBounds" />
          </mxGeometry>
        </mxCell>
        <mxCell id="nX05s3BBMZWombWYPu1h-24" value="" style="shape=partialRectangle;html=1;whiteSpace=wrap;connectable=0;strokeColor=inherit;overflow=hidden;fillColor=none;top=0;left=0;bottom=0;right=0;pointerEvents=1;" vertex="1" parent="nX05s3BBMZWombWYPu1h-20">
          <mxGeometry x="180" width="60" height="71" as="geometry">
            <mxRectangle width="60" height="71" as="alternateBounds" />
          </mxGeometry>
        </mxCell>
        <mxCell id="nX05s3BBMZWombWYPu1h-26" style="shape=partialRectangle;html=1;whiteSpace=wrap;connectable=0;strokeColor=inherit;overflow=hidden;fillColor=none;top=0;left=0;bottom=0;right=0;pointerEvents=1;" vertex="1" parent="nX05s3BBMZWombWYPu1h-20">
          <mxGeometry x="240" width="60" height="71" as="geometry">
            <mxRectangle width="60" height="71" as="alternateBounds" />
          </mxGeometry>
        </mxCell>
        <mxCell id="nX05s3BBMZWombWYPu1h-28" style="shape=partialRectangle;html=1;whiteSpace=wrap;connectable=0;strokeColor=inherit;overflow=hidden;fillColor=none;top=0;left=0;bottom=0;right=0;pointerEvents=1;" vertex="1" parent="nX05s3BBMZWombWYPu1h-20">
          <mxGeometry x="300" width="60" height="71" as="geometry">
            <mxRectangle width="60" height="71" as="alternateBounds" />
          </mxGeometry>
        </mxCell>
        <mxCell id="nX05s3BBMZWombWYPu1h-33" value="" style="ellipse;whiteSpace=wrap;html=1;" vertex="1" parent="1">
          <mxGeometry x="-133" y="306" width="255" height="133" as="geometry" />
        </mxCell>
        <mxCell id="nX05s3BBMZWombWYPu1h-34" value="" style="edgeStyle=none;orthogonalLoop=1;jettySize=auto;html=1;rounded=0;fontSize=12;startSize=8;endSize=8;curved=1;entryX=1;entryY=0;entryDx=0;entryDy=0;exitX=1;exitY=1;exitDx=0;exitDy=0;" edge="1" parent="1" source="nX05s3BBMZWombWYPu1h-33" target="nX05s3BBMZWombWYPu1h-33">
          <mxGeometry width="140" relative="1" as="geometry">
            <mxPoint x="114" y="399" as="sourcePoint" />
            <mxPoint x="254" y="399" as="targetPoint" />
            <Array as="points">
              <mxPoint x="153" y="444" />
              <mxPoint x="175" y="302" />
            </Array>
          </mxGeometry>
        </mxCell>
        <mxCell id="nX05s3BBMZWombWYPu1h-35" value="updated&amp;nbsp;" style="text;html=1;align=center;verticalAlign=middle;resizable=0;points=[];autosize=1;strokeColor=none;fillColor=none;fontSize=16;" vertex="1" parent="1">
          <mxGeometry x="175" y="349" width="81" height="31" as="geometry" />
        </mxCell>
        <mxCell id="nX05s3BBMZWombWYPu1h-36" value="R1" style="ellipse;whiteSpace=wrap;html=1;" vertex="1" parent="1">
          <mxGeometry x="-99" y="323" width="40" height="40" as="geometry" />
        </mxCell>
        <mxCell id="nX05s3BBMZWombWYPu1h-37" value="R2" style="ellipse;whiteSpace=wrap;html=1;" vertex="1" parent="1">
          <mxGeometry x="-48" y="323" width="40" height="40" as="geometry" />
        </mxCell>
        <mxCell id="nX05s3BBMZWombWYPu1h-38" value="Rn" style="ellipse;whiteSpace=wrap;html=1;" vertex="1" parent="1">
          <mxGeometry x="5" y="323" width="40" height="40" as="geometry" />
        </mxCell>
      </root>
    </mxGraphModel>
  </diagram>
</mxfile>
